<svg id="e1ZxsIn04rF1" xmlns="http://www.w3.org/2000/svg" xmlns:xlink="http://www.w3.org/1999/xlink" viewBox="0 0 827 800" shape-rendering="geometricPrecision" text-rendering="geometricPrecision">
<style><![CDATA[
#e1ZxsIn04rF2_to {animation: e1ZxsIn04rF2_to__to 2100ms linear infinite normal forwards}@keyframes e1ZxsIn04rF2_to__to { 0% {transform: translate(71.008003px,1200px);animation-timing-function: cubic-bezier(0.785,0.135,0.15,0.86)} 14.285714% {transform: translate(71.008003px,300px);animation-timing-function: cubic-bezier(0.912254,0.130214,0.865656,0.591095)} 23.809524% {transform: translate(71.008003px,400px)} 33.333333% {transform: translate(71.008003px,360.240822px);animation-timing-function: cubic-bezier(0.096864,0.44671,0.287791,0.852479)} 47.619048% {transform: translate(71.008003px,400px)} 100% {transform: translate(71.008003px,400px)}} #e1ZxsIn04rF3_tr {animation: e1ZxsIn04rF3_tr__tr 2100ms linear infinite normal forwards}@keyframes e1ZxsIn04rF3_tr__tr { 0% {transform: translate(797.622805px,777.575325px) rotate(102deg)} 4.761905% {transform: translate(797.622805px,777.575325px) rotate(102deg);animation-timing-function: cubic-bezier(0.68,-0.55,0.265,1.55)} 38.095238% {transform: translate(797.622805px,777.575325px) rotate(-0.200498deg);animation-timing-function: cubic-bezier(0.68,-0.55,0.265,1.55)} 42.857143% {transform: translate(797.622805px,777.575325px) rotate(17.866759deg);animation-timing-function: cubic-bezier(0.68,-0.55,0.265,1.55)} 52.380952% {transform: translate(797.622805px,777.575325px) rotate(-0.044164deg)} 100% {transform: translate(797.622805px,777.575325px) rotate(-0.044164deg)}}
]]></style>
<g id="e1ZxsIn04rF2_to" transform="translate(71.008003,1200)"><path d="M0,38.1176C0,17.0658,12.8755,0,28.7582,0h84.4998c15.882,0,28.758,17.0659,28.758,38.1176v723.7644c0,21.052-12.876,38.118-28.758,38.118h-84.4998C12.8755,800,0,782.934,0,761.882L0,38.1176Z" transform="translate(-71.008003,-400)" fill="#f1e4cf"/></g><g id="e1ZxsIn04rF3_tr" transform="translate(797.622805,777.575325) rotate(102)"><path d="M514.944,20.4041c11.065-27.7868,41.316-26.89561,51.438,1.5153L824.212,745.606C833.22,770.891,819.304,800,798.207,800h-545.992c-21.655,0-35.541-30.525-25.433-55.909L514.944,20.4041Z" transform="translate(-819.065391,-779.005164)" fill="#fb792a"/></g></svg>
